# xmcd CD database file
#
# Track frame offsets:
#	150
#	50859
#	84244
#	113329
#	168290
#	182640
#	210122
#	274313
#
# Disc length: 4018 seconds
#
# Revision: 0
# Processed by: cddbd v1.5.2PL0 Copyright (c) Steve Scherf et al.
# Submitted via: CDex 1.70beta2
#
DISCID=5f0fb008
DTITLE=Arne Domnerus - Jazz At The Pawnshop 30 Anniversary Disc 3
DYEAR=2006
DGENRE=Jazz
TTITLE0=In A Mellow Tone
TTITLE1=Gubben och Kallingen
TTITLE2=Nancy With The Laughing Face
TTITLE3=Struttin' With Some
TTITLE4=It Don't Mean A Thing
TTITLE5=Mood Indigo
TTITLE6=Jeep's Blues
TTITLE7=High Life (Take 2)
EXTD=YEAR: 2006
EXTT0=
EXTT1=
EXTT2=
EXTT3=
EXTT4=
EXTT5=
EXTT6=
EXTT7=
PLAYORDER=
